<svg width="48" height="48" viewBox="0 0 48 48" fill="none" xmlns="http://www.w3.org/2000/svg">
<circle cx="24" cy="24" r="24" fill="#E8F6F5"/>
<path fill-rule="evenodd" clip-rule="evenodd" d="M14 18C14 16.9391 14.4214 15.9217 15.1716 15.1716C15.9217 14.4214 16.9391 14 18 14H30C31.0609 14 32.0783 14.4214 32.8284 15.1716C33.5786 15.9217 34 16.9391 34 18V30C34 31.0609 33.5786 32.0783 32.8284 32.8284C32.0783 33.5786 31.0609 34 30 34H18C16.9391 34 15.9217 33.5786 15.1716 32.8284C14.4214 32.0783 14 31.0609 14 30V18ZM18 16C17.4696 16 16.9609 16.2107 16.5858 16.5858C16.2107 16.9609 16 17.4696 16 18V30C16 30.5304 16.2107 31.0391 16.5858 31.4142C16.9609 31.7893 17.4696 32 18 32H24V25H23C22.7348 25 22.4804 24.8946 22.2929 24.7071C22.1054 24.5196 22 24.2652 22 24C22 23.7348 22.1054 23.4804 22.2929 23.2929C22.4804 23.1054 22.7348 23 23 23H24V21.5C24 20.5717 24.3687 19.6815 25.0251 19.0251C25.6815 18.3687 26.5717 18 27.5 18H28.1C28.3652 18 28.6196 18.1054 28.8071 18.2929C28.9946 18.4804 29.1 18.7348 29.1 19C29.1 19.2652 28.9946 19.5196 28.8071 19.7071C28.6196 19.8946 28.3652 20 28.1 20H27.5C27.303 20 27.108 20.0388 26.926 20.1142C26.744 20.1896 26.5786 20.3001 26.4393 20.4393C26.3001 20.5786 26.1896 20.744 26.1142 20.926C26.0388 21.108 26 21.303 26 21.5V23H28.1C28.3652 23 28.6196 23.1054 28.8071 23.2929C28.9946 23.4804 29.1 23.7348 29.1 24C29.1 24.2652 28.9946 24.5196 28.8071 24.7071C28.6196 24.8946 28.3652 25 28.1 25H26V32H30C30.5304 32 31.0391 31.7893 31.4142 31.4142C31.7893 31.0391 32 30.5304 32 30V18C32 17.4696 31.7893 16.9609 31.4142 16.5858C31.0391 16.2107 30.5304 16 30 16H18Z" fill="#142837"/>
</svg>
