<svg width="48" height="48" viewBox="0 0 48 48" fill="none" xmlns="http://www.w3.org/2000/svg">
<circle cx="24" cy="24" r="24" fill="#E8F6F5"/>
<path fill-rule="evenodd" clip-rule="evenodd" d="M14 18C14 16.9391 14.4214 15.9217 15.1716 15.1716C15.9217 14.4214 16.9391 14 18 14H30C31.0609 14 32.0783 14.4214 32.8284 15.1716C33.5786 15.9217 34 16.9391 34 18V30C34 31.0609 33.5786 32.0783 32.8284 32.8284C32.0783 33.5786 31.0609 34 30 34H18C16.9391 34 15.9217 33.5786 15.1716 32.8284C14.4214 32.0783 14 31.0609 14 30V18ZM18 16C17.4696 16 16.9609 16.2107 16.5858 16.5858C16.2107 16.9609 16 17.4696 16 18V30C16 30.5304 16.2107 31.0391 16.5858 31.4142C16.9609 31.7893 17.4696 32 18 32H30C30.5304 32 31.0391 31.7893 31.4142 31.4142C31.7893 31.0391 32 30.5304 32 30V18C32 17.4696 31.7893 16.9609 31.4142 16.5858C31.0391 16.2107 30.5304 16 30 16H18ZM24 21C23.2044 21 22.4413 21.3161 21.8787 21.8787C21.3161 22.4413 21 23.2044 21 24C21 24.7956 21.3161 25.5587 21.8787 26.1213C22.4413 26.6839 23.2044 27 24 27C24.7956 27 25.5587 26.6839 26.1213 26.1213C26.6839 25.5587 27 24.7956 27 24C27 23.2044 26.6839 22.4413 26.1213 21.8787C25.5587 21.3161 24.7956 21 24 21ZM19 24C19 22.6739 19.5268 21.4021 20.4645 20.4645C21.4021 19.5268 22.6739 19 24 19C25.3261 19 26.5979 19.5268 27.5355 20.4645C28.4732 21.4021 29 22.6739 29 24C29 25.3261 28.4732 26.5979 27.5355 27.5355C26.5979 28.4732 25.3261 29 24 29C22.6739 29 21.4021 28.4732 20.4645 27.5355C19.5268 26.5979 19 25.3261 19 24V24ZM29.5 20C29.8978 20 30.2794 19.842 30.5607 19.5607C30.842 19.2794 31 18.8978 31 18.5C31 18.1022 30.842 17.7206 30.5607 17.4393C30.2794 17.158 29.8978 17 29.5 17C29.1022 17 28.7206 17.158 28.4393 17.4393C28.158 17.7206 28 18.1022 28 18.5C28 18.8978 28.158 19.2794 28.4393 19.5607C28.7206 19.842 29.1022 20 29.5 20Z" fill="#142837"/>
</svg>
