<svg width="48" height="48" viewBox="0 0 48 48" fill="none" xmlns="http://www.w3.org/2000/svg">
<circle cx="24" cy="24" r="24" fill="#E8F6F5"/>
<path fill-rule="evenodd" clip-rule="evenodd" d="M18 14C16.9391 14 15.9217 14.4214 15.1716 15.1716C14.4214 15.9217 14 16.9391 14 18V30C14 31.0609 14.4214 32.0783 15.1716 32.8284C15.9217 33.5786 16.9391 34 18 34H30C31.0609 34 32.0783 33.5786 32.8284 32.8284C33.5786 32.0783 34 31.0609 34 30V18C34 16.9391 33.5786 15.9217 32.8284 15.1716C32.0783 14.4214 31.0609 14 30 14H18ZM16 18C16 17.4696 16.2107 16.9609 16.5858 16.5858C16.9609 16.2107 17.4696 16 18 16H30C30.5304 16 31.0391 16.2107 31.4142 16.5858C31.7893 16.9609 32 17.4696 32 18V30C32 30.5304 31.7893 31.0391 31.4142 31.4142C31.0391 31.7893 30.5304 32 30 32H18C17.4696 32 16.9609 31.7893 16.5858 31.4142C16.2107 31.0391 16 30.5304 16 30V18ZM21 23C21 22.7348 20.8946 22.4804 20.7071 22.2929C20.5196 22.1054 20.2652 22 20 22C19.7348 22 19.4804 22.1054 19.2929 22.2929C19.1054 22.4804 19 22.7348 19 23V29C19 29.2652 19.1054 29.5196 19.2929 29.7071C19.4804 29.8946 19.7348 30 20 30C20.2652 30 20.5196 29.8946 20.7071 29.7071C20.8946 29.5196 21 29.2652 21 29V23ZM21.5 19.5C21.5 19.8978 21.342 20.2794 21.0607 20.5607C20.7794 20.842 20.3978 21 20 21C19.6022 21 19.2206 20.842 18.9393 20.5607C18.658 20.2794 18.5 19.8978 18.5 19.5C18.5 19.1022 18.658 18.7206 18.9393 18.4393C19.2206 18.158 19.6022 18 20 18C20.3978 18 20.7794 18.158 21.0607 18.4393C21.342 18.7206 21.5 19.1022 21.5 19.5V19.5ZM24 22C24.34 22 24.64 22.17 24.82 22.428C25.3354 22.1471 25.913 21.9999 26.5 22C28.66 22 30 23.926 30 25.571V29C30 29.2652 29.8946 29.5196 29.7071 29.7071C29.5196 29.8946 29.2652 30 29 30C28.7348 30 28.4804 29.8946 28.2929 29.7071C28.1054 29.5196 28 29.2652 28 29V25.57C28 24.802 27.34 23.999 26.5 23.999C25.976 23.999 25.397 24.284 25 24.962V29C25 29.2652 24.8946 29.5196 24.7071 29.7071C24.5196 29.8946 24.2652 30 24 30C23.7348 30 23.4804 29.8946 23.2929 29.7071C23.1054 29.5196 23 29.2652 23 29V23C23 22.7348 23.1054 22.4804 23.2929 22.2929C23.4804 22.1054 23.7348 22 24 22V22Z" fill="#142837"/>
</svg>
