<svg width="48" height="48" viewBox="0 0 48 48" fill="none" xmlns="http://www.w3.org/2000/svg">
<circle cx="24" cy="24" r="24" fill="#E8F6F5"/>
<path fill-rule="evenodd" clip-rule="evenodd" d="M18 14C16.9391 14 15.9217 14.4214 15.1716 15.1716C14.4214 15.9217 14 16.9391 14 18V30C14 31.0609 14.4214 32.0783 15.1716 32.8284C15.9217 33.5786 16.9391 34 18 34H30C31.0609 34 32.0783 33.5786 32.8284 32.8284C33.5786 32.0783 34 31.0609 34 30V18C34 16.9391 33.5786 15.9217 32.8284 15.1716C32.0783 14.4214 31.0609 14 30 14H18ZM16 18C16 17.4696 16.2107 16.9609 16.5858 16.5858C16.9609 16.2107 17.4696 16 18 16H30C30.5304 16 31.0391 16.2107 31.4142 16.5858C31.7893 16.9609 32 17.4696 32 18V30C32 30.5304 31.7893 31.0391 31.4142 31.4142C31.0391 31.7893 30.5304 32 30 32H18C17.4696 32 16.9609 31.7893 16.5858 31.4142C16.2107 31.0391 16 30.5304 16 30V18ZM19 19C18.7348 19 18.4804 19.1054 18.2929 19.2929C18.1054 19.4804 18 19.7348 18 20C18 20.2652 18.1054 20.5196 18.2929 20.7071C18.4804 20.8946 18.7348 21 19 21V27C18.7348 27 18.4804 27.1054 18.2929 27.2929C18.1054 27.4804 18 27.7348 18 28C18 28.2652 18.1054 28.5196 18.2929 28.7071C18.4804 28.8946 18.7348 29 19 29H21C21.2652 29 21.5196 28.8946 21.7071 28.7071C21.8946 28.5196 22 28.2652 22 28C22 27.7348 21.8946 27.4804 21.7071 27.2929C21.5196 27.1054 21.2652 27 21 27V23.303L23.168 26.555C23.2593 26.692 23.383 26.8043 23.5282 26.8819C23.6733 26.9596 23.8354 27.0002 24 27.0002C24.1646 27.0002 24.3267 26.9596 24.4718 26.8819C24.617 26.8043 24.7407 26.692 24.832 26.555L27 23.303V27C26.7348 27 26.4804 27.1054 26.2929 27.2929C26.1054 27.4804 26 27.7348 26 28C26 28.2652 26.1054 28.5196 26.2929 28.7071C26.4804 28.8946 26.7348 29 27 29H29C29.2652 29 29.5196 28.8946 29.7071 28.7071C29.8946 28.5196 30 28.2652 30 28C30 27.7348 29.8946 27.4804 29.7071 27.2929C29.5196 27.1054 29.2652 27 29 27V21C29.2652 21 29.5196 20.8946 29.7071 20.7071C29.8946 20.5196 30 20.2652 30 20C30 19.7348 29.8946 19.4804 29.7071 19.2929C29.5196 19.1054 29.2652 19 29 19H28C27.8354 19 27.6734 19.0406 27.5282 19.1182C27.3831 19.1958 27.2593 19.3081 27.168 19.445L24 24.197L20.832 19.445C20.7407 19.3081 20.6169 19.1958 20.4718 19.1182C20.3266 19.0406 20.1646 19 20 19H19Z" fill="#142837"/>
</svg>
