<svg width="48" height="48" viewBox="0 0 48 48" fill="none" xmlns="http://www.w3.org/2000/svg">
<circle cx="24" cy="24" r="24" fill="#E8F6F5"/>
<path fill-rule="evenodd" clip-rule="evenodd" d="M22.0485 19.0011C22.2293 19.0098 22.4044 19.0675 22.555 19.168L28.555 23.168C28.692 23.2594 28.8043 23.3831 28.8819 23.5282C28.9596 23.6733 29.0002 23.8354 29.0002 24C29.0002 24.1646 28.9596 24.3267 28.8819 24.4718C28.8043 24.617 28.692 24.7407 28.555 24.832L22.555 28.832C22.4044 28.9325 22.2293 28.9902 22.0485 28.999C21.8677 29.0078 21.6879 28.9673 21.5282 28.8819C21.3686 28.7965 21.2352 28.6693 21.1421 28.514C21.0491 28.3587 21 28.1811 21 28V20C21 19.819 21.0491 19.6413 21.1421 19.486C21.2352 19.3307 21.3686 19.2036 21.5282 19.1182C21.6879 19.0327 21.8677 18.9923 22.0485 19.0011ZM23 26.132L26.197 24L23 21.869V26.132Z" fill="#142837"/>
<path fill-rule="evenodd" clip-rule="evenodd" d="M13 21.4C13 19.1598 13 18.0397 13.436 17.184C13.8195 16.4314 14.4314 15.8195 15.184 15.436C16.0397 15 17.1598 15 19.4 15H28.6C30.8402 15 31.9603 15 32.816 15.436C33.5686 15.8195 34.1805 16.4314 34.564 17.184C35 18.0397 35 19.1598 35 21.4V26.6C35 28.8402 35 29.9603 34.564 30.816C34.1805 31.5686 33.5686 32.1805 32.816 32.564C31.9603 33 30.8402 33 28.6 33H19.4C17.1598 33 16.0397 33 15.184 32.564C14.4314 32.1805 13.8195 31.5686 13.436 30.816C13 29.9603 13 28.8402 13 26.6V21.4ZM19.4 17H28.6C29.7531 17 30.4977 17.0016 31.0643 17.0479C31.6077 17.0922 31.8091 17.1676 31.908 17.218C32.2843 17.4097 32.5903 17.7157 32.782 18.092C32.8324 18.1909 32.9078 18.3923 32.9521 18.9357C32.9984 19.5023 33 20.2469 33 21.4V26.6C33 27.7531 32.9984 28.4977 32.9521 29.0643C32.9078 29.6077 32.8324 29.8091 32.782 29.908C32.5903 30.2843 32.2843 30.5903 31.908 30.782C31.8091 30.8324 31.6077 30.9078 31.0643 30.9521C30.4977 30.9984 29.7531 31 28.6 31H19.4C18.2469 31 17.5023 30.9984 16.9357 30.9521C16.3923 30.9078 16.1909 30.8324 16.092 30.782C15.7157 30.5903 15.4097 30.2843 15.218 29.908C15.1676 29.8091 15.0922 29.6077 15.0479 29.0643C15.0016 28.4977 15 27.7531 15 26.6V21.4C15 20.2469 15.0016 19.5023 15.0479 18.9357C15.0922 18.3923 15.1676 18.1909 15.218 18.092C15.4097 17.7157 15.7157 17.4097 16.092 17.218C16.1909 17.1676 16.3923 17.0922 16.9357 17.0479C17.5023 17.0016 18.2469 17 19.4 17Z" fill="#142837"/>
</svg>
