<svg width="210" height="40" viewBox="0 0 210 40" fill="none" xmlns="http://www.w3.org/2000/svg">
<path fill-rule="evenodd" clip-rule="evenodd" d="M48.2177 11.6624V28.1726C48.2177 30.5445 51.4163 30.7168 51.4196 28.0434V16.3133L55.176 21.2558C56.1663 22.5809 57.995 25.0819 58.9456 26.2513C59.4903 26.9138 59.9359 27.5764 60.4739 28.2588C60.979 28.8815 61.3982 29.7992 62.3191 29.9449C62.5473 29.9931 62.7834 29.9879 63.0092 29.9297C63.2351 29.8716 63.4445 29.762 63.6213 29.6095C63.7982 29.4571 63.9376 29.2658 64.0289 29.0505C64.1202 28.8352 64.1609 28.6017 64.1478 28.3681V11.6624C64.1478 10.7911 63.5635 10.0259 62.7119 10.0259C60.936 10.0259 61.0153 11.2118 61.0153 12.3845V23.6476C60.7717 23.39 60.5509 23.1118 60.3551 22.8161L57.0014 18.4401C56.5459 17.8272 56.1333 17.2972 55.681 16.6877C55.4533 16.3829 55.2585 16.1444 55.0209 15.8363C54.0042 14.4781 51.9246 11.6822 51.0037 10.5692C50.7906 10.3169 50.5043 10.1377 50.1848 10.0566C49.8653 9.9756 49.5286 9.99678 49.2217 10.1172C48.9148 10.2376 48.653 10.4513 48.473 10.7283C48.293 11.0054 48.2038 11.3319 48.2177 11.6624Z" fill="#67C1BF"/>
<path fill-rule="evenodd" clip-rule="evenodd" d="M76.6152 24.5024C76.6152 26.1057 75.1562 27.1227 73.5454 27.1227C72.3741 27.1916 71.2153 26.8497 70.2676 26.1554C68.8582 25.208 69.0991 24.499 67.8019 24.499C66.7159 24.499 65.9963 25.9036 66.9073 26.9703C67.3283 27.5077 67.828 27.9779 68.3894 28.3649C69.4655 29.1301 71.2447 29.8788 72.5684 29.9384C72.8555 29.9384 73.0437 29.9649 73.2285 29.9881C73.4398 29.989 73.6508 29.9713 73.859 29.9351C77.1302 29.8523 79.8006 27.7355 79.8006 24.3036C79.8006 20.2125 75.6217 19.169 72.7268 17.7081C72.2229 17.4681 71.7404 17.1855 71.2843 16.8634C70.3997 16.181 70.3997 15.7636 70.3997 14.8725C70.3997 13.6965 71.8058 12.8418 73.0767 12.8418C74.0115 12.8081 74.9321 13.0789 75.7009 13.6137L76.3413 14.1072C76.4403 14.1867 76.4502 14.1801 76.5591 14.2762C77.0212 14.6903 77.0443 14.8161 77.7837 14.8161C78.5231 14.8161 79.1041 14.2099 79.1041 13.3122C79.1041 12.4145 77.8035 11.4339 77.1236 11.0298C74.3541 9.35357 69.8385 9.67159 67.9702 12.5635C66.8776 14.2497 66.8809 16.5719 68.1485 18.1387C68.9935 19.1855 70.096 19.8646 71.3041 20.4576C72.5122 21.0506 74.0405 21.67 75.0836 22.2961C75.856 22.7665 76.6152 23.3065 76.6152 24.5024Z" fill="#67C1BF"/>
<path fill-rule="evenodd" clip-rule="evenodd" d="M97.698 15.2667C97.7057 16.213 97.9941 17.1356 98.5265 17.9168C98.6896 18.1468 98.8648 18.368 99.0513 18.5793C99.8652 19.3503 100.797 19.9856 101.811 20.4609C102.953 21.034 105.63 22.1172 106.399 22.8659C108.185 24.5885 106.68 27.1425 104.088 27.1425C102.141 27.1425 101.032 26.533 99.7973 25.2941C99.223 24.7177 99.2428 24.5222 98.3449 24.5222C97.1566 24.5222 96.5889 26.0461 97.4471 26.9968C97.6586 27.2546 97.8857 27.4991 98.1271 27.7289C99.2009 28.6843 100.488 29.366 101.88 29.7165C102.501 29.8681 103.136 29.9547 103.775 29.9749C104.013 29.9947 104.105 29.9285 104.409 29.9252C109.987 29.8788 112.41 23.5616 108.37 20.3914C107.177 19.5419 105.891 18.8317 104.537 18.2746C103.409 17.8174 101.418 16.9495 101.025 15.8364C100.902 15.4448 100.887 15.0268 100.982 14.6273C101.028 14.444 101.091 14.2654 101.171 14.094C101.342 13.7759 101.597 13.5104 101.907 13.3255C103.125 12.484 105.056 12.7921 106.257 13.6004C107.459 14.4087 107.3 14.793 108.399 14.793C109.033 14.793 111.222 13.3122 107.667 11.0066C105.604 9.68153 102.445 9.68153 100.217 10.9072C99.4566 11.3529 98.8249 11.9889 98.3835 12.7531C97.942 13.5172 97.7058 14.3834 97.698 15.2667Z" fill="#67C1BF"/>
<path fill-rule="evenodd" clip-rule="evenodd" d="M80.6621 11.3345C80.6621 12.3482 80.9394 12.4973 81.4246 13.3221L86.706 21.9582C86.9371 22.3293 86.8447 22.7831 86.8447 23.4556C86.8447 24.9065 86.7853 27.0995 86.8447 28.3682C86.9437 30.5016 89.997 30.601 89.9805 28.239V23.3231C89.9805 21.9682 89.9475 22.3723 90.8321 20.9015C90.9312 20.7359 91.0203 20.6133 91.1325 20.4212L95.8099 12.8021C96.14 12.2422 96.2456 12.1395 96.2456 11.4041C96.234 11.0432 96.086 10.7002 95.8316 10.4449C95.5771 10.1895 95.2354 10.041 94.8757 10.0294C93.4959 10.0294 93.3936 10.5958 92.6179 11.8911C91.7003 13.4248 89.2675 17.4398 88.4786 18.9371C88.2211 18.7648 84.7717 12.7524 84.2865 11.9408C84.0521 11.5466 83.8343 11.0993 83.5834 10.7482C82.6559 9.40989 80.6621 10.0691 80.6621 11.3345Z" fill="#67C1BF"/>
<path d="M113.374 6.8C111.717 6.8 110.38 8.14226 110.38 9.79427C110.38 11.4578 111.717 12.8 113.374 12.8C115.02 12.8 116.357 11.4578 116.357 9.79427C116.357 8.14226 115.02 6.8 113.374 6.8ZM113.374 11.9969C112.162 11.9969 111.237 11.0447 111.237 9.79427C111.237 8.55526 112.162 7.60306 113.374 7.60306C114.574 7.60306 115.5 8.55526 115.5 9.79427C115.5 11.0447 114.574 11.9969 113.374 11.9969ZM114.231 10.1958C114.471 10.0008 114.62 9.72544 114.62 9.39274C114.62 8.78471 114.117 8.36023 113.408 8.36023H112.654C112.391 8.36023 112.197 8.55526 112.197 8.81913V10.8382C112.197 11.1021 112.391 11.2971 112.642 11.2971C112.894 11.2971 113.077 11.1021 113.077 10.8382V10.4482H113.282L113.934 11.1365C114.014 11.2398 114.128 11.2971 114.265 11.2971C114.505 11.2971 114.7 11.1021 114.7 10.8612C114.7 10.7465 114.654 10.6317 114.562 10.54L114.231 10.1958ZM113.077 9.12888H113.408C113.591 9.12888 113.717 9.23213 113.717 9.40421C113.717 9.5763 113.591 9.67955 113.408 9.67955H113.077V9.12888Z" fill="#67C1BF"/>
<path d="M24.6378 17.1214C24.435 17.8857 23.9279 18.5481 23.2181 18.9048C22.8125 19.1596 22.3055 19.2615 21.7984 19.2615C21.5449 19.2615 21.2407 19.2106 20.9872 19.1596C20.2267 18.9558 19.6183 18.4462 19.2126 17.7329L12.4186 19.4654C12.6214 20.8921 12.3172 22.2679 11.6073 23.4909L15.4607 26.752C15.6128 26.6501 15.7649 26.4973 15.9677 26.3953C17.8437 25.3253 20.2267 26.0387 21.2914 27.924C22.3562 29.8094 21.6463 32.2043 19.7704 33.2744C19.1619 33.6311 18.5028 33.7839 17.8944 33.7839C16.5254 33.7839 15.1565 33.0706 14.4466 31.7457C13.7368 30.4718 13.8382 28.9431 14.5481 27.7712L10.7961 24.5609C10.3905 25.0195 9.88346 25.4272 9.27504 25.7329C8.3117 26.2425 7.29766 26.4973 6.23292 26.4973C5.67519 26.4973 5.06677 26.3953 4.50905 26.2425C2.88658 25.7839 1.56833 24.7138 0.757094 23.2361C-0.865372 20.2806 0.199371 16.459 3.19079 14.7774C4.66115 13.9621 6.33432 13.7583 7.95679 14.2169C9.57925 14.6755 10.8975 15.7456 11.7087 17.2233C11.8608 17.529 12.0129 17.7838 12.1144 18.0895L18.8577 16.357C18.8577 16.0513 18.8577 15.7456 18.9591 15.4398C19.1619 14.6755 19.669 14.0131 20.3788 13.6564C21.7984 12.8411 23.6237 13.4016 24.435 14.8284C24.7899 15.5418 24.8913 16.357 24.6378 17.1214Z" fill="#67C1BF"/>
<path d="M35.2339 36.9426C34.3719 38.3694 33.003 39.3885 31.3805 39.7962C30.8735 39.8981 30.3665 40 29.8595 40C28.744 40 27.6286 39.6943 26.6652 39.0828C23.7245 37.2993 22.7612 33.4267 24.5357 30.4713C24.6879 30.2165 24.8907 29.9617 25.0935 29.7069L20.2261 24.7133C19.7698 25.019 19.212 25.1719 18.6543 25.1719C18.1473 25.1719 17.5896 25.019 17.1332 24.7642C16.4741 24.3566 15.9671 23.6941 15.7643 22.9298C15.5615 22.1655 15.7136 21.3502 16.1192 20.6877C16.5248 20.0253 17.1839 19.5158 17.9445 19.3119C18.705 19.1081 19.5162 19.261 20.1754 19.6686C21.595 20.5349 22.0513 22.3693 21.1894 23.7451L26.0568 28.7897C27.1723 27.9235 28.5412 27.4649 29.9609 27.5158L30.8228 22.5222C30.62 22.4712 30.4679 22.3693 30.2651 22.2674C29.3524 21.7069 28.744 20.8406 28.4905 19.8215C28.237 18.8024 28.3891 17.7323 28.9468 16.8151C29.5045 15.8979 30.3665 15.2864 31.3805 15.0316C32.3946 14.7769 33.4593 14.9297 34.3719 15.4902C36.2479 16.6113 36.8056 19.0572 35.6902 20.8916C35.1325 21.8088 34.2705 22.4202 33.2565 22.675C32.9523 22.7769 32.5974 22.7769 32.2932 22.7769C32.2425 22.7769 32.2425 22.7769 32.1918 22.7769L31.3298 27.6687C31.9382 27.8216 32.5467 28.0763 33.1044 28.3821C36.0451 30.1146 37.0085 33.9872 35.2339 36.9426Z" fill="#FFDB06"/>
<path d="M35.8424 6.26757C35.8424 9.73256 33.0538 12.5351 29.606 12.5351C29.3018 12.5351 28.9469 12.4842 28.6427 12.4332L26.8681 19.2103C27.8315 19.7199 28.4906 20.6881 28.4906 21.86C28.4906 23.4906 27.1723 24.8664 25.4992 24.8664C23.8767 24.8664 22.5078 23.5416 22.5078 21.86C22.5078 20.2295 23.826 18.8537 25.4992 18.8537L27.2737 12.0765C25.9555 11.567 24.8908 10.5988 24.1809 9.37587L19.4656 11.2103C19.5163 11.4141 19.5163 11.6179 19.5163 11.8218C19.5163 14.0129 17.7418 15.7453 15.6123 15.7453C13.4321 15.7453 11.7082 13.9619 11.7082 11.8218C11.7082 9.63065 13.4828 7.89815 15.6123 7.89815C17.0826 7.89815 18.3502 8.71344 19.0093 9.93638L23.6232 8.15293C23.4204 7.54146 23.319 6.92999 23.319 6.26757C23.3697 2.80257 26.1583 0 29.606 0C33.0538 0 35.8424 2.80257 35.8424 6.26757Z" fill="#142837"/>
<path d="M128.073 29.6245C128.818 29.8094 129.564 29.8557 130.355 29.8557C133.429 29.8557 136.409 28.5151 138.225 26.1576C138.691 25.5104 138.971 24.7246 138.971 23.8925V20.5181C138.971 19.686 138.272 18.9926 137.434 18.9926H131.566C130.821 18.9926 130.122 19.5011 129.983 20.2407C129.796 21.2114 130.541 22.0435 131.473 22.0435H135.897V23.8925C135.897 24.0774 135.85 24.2161 135.757 24.3086C134.22 26.2963 131.38 27.267 128.725 26.6661C125.652 25.9727 123.37 23.1529 123.37 19.9633C123.37 17.6983 124.441 15.5719 126.397 14.1851C127.142 13.6766 127.98 13.3068 128.865 13.1219C131.519 12.5672 134.174 13.538 135.804 15.5719C136.27 16.1266 137.061 16.404 137.713 16.0804C138.598 15.6181 138.831 14.5549 138.225 13.8153C136.083 11.088 132.684 9.65499 129.144 10.071C127.328 10.2559 125.605 10.9955 124.208 12.105C121.693 14.0464 120.296 16.9587 120.343 20.0558C120.389 24.5859 123.649 28.6076 128.073 29.6245Z" fill="#67C1BF"/>
<path d="M141.532 28.0988C141.532 28.8384 142.044 29.4855 142.79 29.6242C143.767 29.8091 144.606 29.0695 144.606 28.1912V22.0432H148.424L153.547 29.0233C153.827 29.4393 154.292 29.6242 154.805 29.6242C155.177 29.6242 155.596 29.4855 155.876 29.2082C156.434 28.6997 156.434 27.8676 156.015 27.2667L151.591 21.3036C153.687 20.1942 155.037 17.9753 154.758 15.4329C154.432 12.5207 151.545 10.2094 148.564 10.2094H143.069C142.231 10.2094 141.532 10.8565 141.532 11.6886V28.0988ZM151.731 16.1263C151.731 17.6517 150.567 18.8998 148.983 19.0847C148.89 19.0847 148.75 19.0847 148.657 19.0847H144.513V13.1678H148.657C150.38 13.1678 151.731 14.4622 151.731 16.1263Z" fill="#67C1BF"/>
<path d="M196.717 28.0988C196.717 28.8384 197.23 29.4855 197.975 29.6242C198.953 29.8091 199.791 29.0695 199.791 28.1912V22.0432H203.936C204.122 22.0432 204.355 22.0432 204.541 21.997C207.801 21.6734 210.176 18.9461 209.99 15.7565C209.803 12.7056 206.87 10.2094 203.749 10.2094H198.254C197.416 10.2094 196.717 10.8565 196.717 11.6886V28.0988ZM206.916 16.1263C206.916 17.6517 205.752 18.8998 204.169 19.0847C204.075 19.0847 203.936 19.0847 203.843 19.0847H199.698V13.1678H203.843C205.566 13.1678 206.916 14.4622 206.916 16.1263Z" fill="#67C1BF"/>
<path d="M165.423 29.8555C171.756 30.5027 177.065 25.2329 176.413 18.9462C175.948 14.2774 172.175 10.5331 167.472 10.0709C161.138 9.42371 155.829 14.6934 156.481 20.9802C156.947 25.6027 160.766 29.3932 165.423 29.8555ZM165.563 13.0755C170.126 12.5208 173.992 16.3113 173.386 20.8415C173.014 23.9386 170.499 26.4348 167.379 26.8046C162.815 27.3593 158.95 23.5688 159.555 19.0387C159.928 15.9415 162.442 13.4916 165.563 13.0755Z" fill="#67C1BF"/>
<path d="M187.031 29.9683C190.942 29.5985 194.156 25.9466 194.156 22.0174V11.6629C194.156 10.9232 193.644 10.2299 192.898 10.0912C191.92 9.90627 191.082 10.6459 191.082 11.5704V22.0174C191.082 24.3749 189.406 26.4551 187.077 26.8711C184.05 27.3796 181.442 25.0683 181.442 22.1561V11.6629C181.442 10.9232 180.93 10.2299 180.185 10.0912C179.207 9.90627 178.369 10.6459 178.369 11.5704V22.1561C178.462 26.7325 182.374 30.3843 187.031 29.9683Z" fill="#67C1BF"/>
</svg>
